<svg width="64" height="64" viewBox="0 0 64 64" fill="none" xmlns="http://www.w3.org/2000/svg">
<g id="Modo_de_aislamiento" clip-path="url(#clip0_17023_1197)">
<path id="Vector" d="M63.9672 31.3243C63.8917 30.7821 63.6632 30.2573 63.2527 29.8235C62.1276 28.6307 59.9471 28.3189 58.2043 28.3712C55.4933 28.4525 52.8074 28.8998 50.3055 29.7654C48.6247 30.3464 44.3063 31.9556 47.7165 33.4815C50.8206 34.8719 54.7206 35.6406 58.2818 35.6387C59.6896 35.6387 61.415 35.4393 62.5323 34.686C63.5606 33.9908 63.9963 32.9141 64.0021 31.8529C64.0021 31.6767 63.9924 31.5005 63.9692 31.3262" fill="#38F2AB"/>
<path id="Vector_2" d="M13.6949 29.7635C11.193 28.8998 8.50711 28.4525 5.79606 28.3692C4.05325 28.3169 1.87473 28.6287 0.747713 29.8216C0.337184 30.2553 0.108682 30.7821 0.0331597 31.3223C0.0079857 31.4966 -0.0016966 31.6728 0.000239862 31.849C0.00604924 32.9102 0.441753 33.9869 1.47001 34.6821C2.58541 35.4354 4.31274 35.6348 5.71861 35.6348C9.27976 35.6368 13.1798 34.868 16.2839 33.4776C19.694 31.9497 15.3757 30.3405 13.6949 29.7615" fill="#38F2AB"/>
<path id="Vector_3" d="M34.2366 50.3053C33.6556 48.6244 32.0464 44.3061 30.5205 47.7162C29.1301 50.8184 28.3613 54.7204 28.3633 58.2815C28.3633 59.6893 28.5627 61.4147 29.316 62.5301C30.0112 63.5584 31.0879 63.9941 32.1491 63.9999C32.3253 63.9999 32.5015 63.9902 32.6758 63.967C33.218 63.8895 33.7428 63.663 34.1785 63.2524C35.3713 62.1254 35.6831 59.9469 35.6308 58.2041C35.5495 55.493 35.1022 52.8072 34.2366 50.3053Z" fill="#38F2AB"/>
<path id="Vector_4" d="M32.6758 0.0329155C32.5015 0.00774156 32.3253 -0.00194074 32.1491 -4.27899e-06C31.0879 0.0058051 30.0112 0.441509 29.316 1.46977C28.5627 2.58517 28.3633 4.31249 28.3633 5.71836C28.3613 9.27951 29.1301 13.1795 30.5205 16.2837C32.0484 19.6938 33.6576 15.3755 34.2366 13.6946C35.1002 11.1927 35.5476 8.50686 35.6308 5.79582C35.6831 4.05301 35.3713 1.87449 34.1785 0.747469C33.7447 0.33694 33.218 0.108437 32.6777 0.0329155" fill="#38F2AB"/>
<path id="Vector_5" d="M53.0956 47.9622C51.1204 46.1032 48.9051 44.5192 46.5252 43.3612C44.9257 42.5827 40.7352 40.6675 42.0655 44.159C43.2777 47.3367 45.4911 50.6384 48.0104 53.1558C49.0058 54.1492 50.3671 55.2297 51.6897 55.4873C52.9078 55.7235 53.9786 55.2704 54.7319 54.5249C54.8558 54.4009 54.974 54.2692 55.0805 54.1279C55.4097 53.6902 55.6207 53.1577 55.6362 52.5613C55.6846 50.9211 54.364 49.1589 53.0937 47.9641" fill="#38F2AB"/>
<path id="Vector_6" d="M16.0377 10.9041C14.8429 9.63573 13.0807 8.31507 11.4405 8.36154C10.8441 8.37897 10.3096 8.58811 9.87394 8.91731C9.73258 9.02381 9.6009 9.14194 9.47696 9.26587C8.73143 10.0192 8.27829 11.09 8.51454 12.308C8.77016 13.6307 9.8507 14.992 10.846 15.9873C13.3634 18.5067 16.6651 20.722 19.8428 21.9323C23.3343 23.2645 21.4172 19.0721 20.6407 17.4726C19.4827 15.0927 17.8986 12.8754 16.0396 10.9022" fill="#38F2AB"/>
<path id="Vector_7" d="M19.8409 42.0657C16.6631 43.278 13.3615 45.4913 10.8441 48.0107C9.85067 49.006 8.77013 50.3673 8.51258 51.6899C8.27633 52.908 8.72946 53.9788 9.47693 54.7321C9.60087 54.8561 9.73255 54.9742 9.87391 55.0807C10.3115 55.4099 10.8441 55.619 11.4405 55.6365C13.0807 55.6849 14.8429 54.3642 16.0377 53.0939C17.8967 51.1187 19.4807 48.9034 20.6387 46.5235C21.4171 44.924 23.3323 40.7335 19.8409 42.0638" fill="#38F2AB"/>
<path id="Vector_8" d="M46.5252 20.6387C48.9051 19.4807 51.1204 17.8967 53.0956 16.0377C54.3659 14.8429 55.6847 13.0807 55.6382 11.4405C55.6208 10.8441 55.4116 10.3096 55.0824 9.87394C54.9759 9.73258 54.8578 9.6009 54.7339 9.47696C53.9806 8.73143 52.9097 8.27829 51.6917 8.51454C50.3691 8.77016 49.0077 9.8507 48.0124 10.846C45.4931 13.3634 43.2797 16.6651 42.0675 19.8428C40.7371 23.3343 44.9276 21.4172 46.5271 20.6407" fill="#38F2AB"/>
</g>
<defs>
<clipPath id="clip0_17023_1197">
<rect width="64" height="64" fill="white"/>
</clipPath>
</defs>
</svg>
