<svg xmlns="http://www.w3.org/2000/svg" width="90" height="24" viewBox="0 0 90 24" fill="none">
  <path d="M38.2402 9.74865H29.1194C28.9005 9.74865 28.7229 9.9175 28.7229 10.126V23.622C28.7229 23.8304 28.9005 23.9993 29.1194 23.9993H38.2402C38.4596 23.9993 38.6372 23.8304 38.6372 23.622V10.126C38.6372 9.9175 38.4596 9.74865 38.2402 9.74865Z" fill="#38F2AB"/>
  <path d="M28.2508 4.03519C28.2508 4.04132 28.2508 4.04745 28.2508 4.05358C28.2508 4.05971 28.2508 4.06537 28.2508 4.07151C28.248 9.49491 39.1093 9.36568 39.1093 4.07151C39.1093 4.06585 39.1093 4.05971 39.1088 4.05358C39.1088 4.04745 39.1093 4.04179 39.1093 4.03519C39.1102 -1.33775 28.2508 -1.35237 28.2508 4.03519Z" fill="#38F2AB"/>
  <path d="M88.3812 9.68073H79.2608C79.0415 9.68073 78.8639 9.84958 78.8639 10.058V23.6225C78.8639 23.8304 79.0415 23.9998 79.2608 23.9998H88.3812C88.6006 23.9998 88.7782 23.8309 88.7782 23.6225V10.058C88.7782 9.85005 88.6006 9.68073 88.3812 9.68073Z" fill="#38F2AB"/>
  <path d="M89.2498 4.03519C89.2507 -1.33775 78.3914 -1.35237 78.3914 4.03519C78.3914 4.04132 78.3914 4.04745 78.3914 4.05358C78.3914 4.05971 78.3914 4.06585 78.3914 4.07198C78.389 9.49538 89.2498 9.36615 89.2498 4.07198C89.2498 4.06632 89.2498 4.06019 89.2493 4.05405C89.2493 4.04792 89.2498 4.04179 89.2498 4.03519Z" fill="#38F2AB"/>
  <path d="M74.5297 0.318183H66.974C66.7546 0.318183 66.577 0.487031 66.577 0.695496V6.81787C66.577 10.3566 65.5286 11.7088 63.9536 12.1262C63.8277 12.1597 63.7037 12.0677 63.7037 11.9437V0.695496C63.7037 0.487031 63.5261 0.318183 63.3067 0.318183H55.7586C55.5392 0.318183 55.3621 0.487031 55.3621 0.695496V6.7924C55.3621 10.3311 54.3137 11.6833 52.7382 12.1007C52.6127 12.1342 52.4883 12.0422 52.4883 11.9182V0.695496C52.4883 0.487031 52.3107 0.318183 52.0918 0.318183H42.9709C42.7521 0.318183 42.5745 0.487031 42.5745 0.695496V23.622C42.5745 23.8305 42.7521 23.9993 42.9709 23.9993H49.2466C50.2955 23.9993 51.313 23.8262 52.2717 23.5078C55.2898 22.5386 57.6535 20.2186 58.5709 17.3048C58.716 16.8917 58.8212 16.4629 58.9251 16.03C58.9669 15.8569 59.22 15.8673 59.22 16.0488V23.622C59.22 23.8305 59.3971 23.9993 59.6165 23.9993H65.0513C70.505 23.9993 74.9261 19.7941 74.9261 14.6066V0.695496C74.9261 0.487031 74.749 0.318183 74.5297 0.318183Z" fill="#38F2AB"/>
  <path d="M9.9692 23.9993V14.9796C9.9692 14.8561 10.0918 14.7664 10.2182 14.7962C12.9732 15.4451 14.8408 17.6562 14.9235 23.5828C14.9268 23.8135 15.125 23.9988 15.3674 23.9988L9.9692 23.9993ZM12.448 12.1587C19.2441 12.1587 24.7678 6.97823 24.8936 0.542684C24.896 0.419114 24.7898 0.318183 24.6602 0.318183H19.8839C18.1154 0.318183 16.7705 0.700684 15.4717 1.37089C12.7406 2.71742 10.7988 5.25344 10.2886 8.24459C10.2731 8.32052 10.2628 8.40447 10.2463 8.49173C10.2102 8.67944 9.96826 8.64407 9.97108 8.4705L9.96967 0.539383C9.96967 0.417228 9.86539 0.317712 9.73668 0.317712H0.232989C0.104281 0.317712 0 0.416756 0 0.539383V23.7776C0 23.8998 0.104281 23.9988 0.232989 23.9988H24.6602C24.7898 23.9988 24.896 23.8979 24.8936 23.7743C24.7678 17.3383 19.2437 12.1587 12.448 12.1587Z" fill="#38F2AB"/>
</svg>